<mxfile host="app.diagrams.net" modified="2021-11-02T07:15:03.606Z" agent="5.0 (Macintosh; Intel Mac OS X 10_15_7) AppleWebKit/537.36 (KHTML, like Gecko) Chrome/95.0.4638.54 Safari/537.36" etag="oFZOjdsdBH4TpZpueNmi" version="15.6.5" type="github">
  <diagram id="9B4lHXjUug-kF66GEb5D" name="Page-1">
    <mxGraphModel dx="2066" dy="1163" grid="1" gridSize="10" guides="1" tooltips="1" connect="1" arrows="1" fold="1" page="1" pageScale="1" pageWidth="827" pageHeight="1169" math="0" shadow="0">
      <root>
        <mxCell id="0" />
        <mxCell id="1" parent="0" />
        <mxCell id="THCSRFLYkE0kERP_fJf6-2" value="FilterBlockBuilder" style="swimlane;fontStyle=0;childLayout=stackLayout;horizontal=1;startSize=30;horizontalStack=0;resizeParent=1;resizeParentMax=0;resizeLast=0;collapsible=1;marginBottom=0;sketch=1;fillColor=default;strokeColor=default;fontColor=default;" vertex="1" parent="1">
          <mxGeometry x="40" y="460" width="310" height="210" as="geometry" />
        </mxCell>
        <mxCell id="THCSRFLYkE0kERP_fJf6-3" value="const FilterPolicy* policy_" style="text;strokeColor=none;fillColor=none;align=left;verticalAlign=middle;spacingLeft=4;spacingRight=4;overflow=hidden;points=[[0,0.5],[1,0.5]];portConstraint=eastwest;rotatable=0;fontColor=#000000;sketch=1;" vertex="1" parent="THCSRFLYkE0kERP_fJf6-2">
          <mxGeometry y="30" width="310" height="30" as="geometry" />
        </mxCell>
        <mxCell id="THCSRFLYkE0kERP_fJf6-4" value="std::string keys_" style="text;strokeColor=none;fillColor=none;align=left;verticalAlign=middle;spacingLeft=4;spacingRight=4;overflow=hidden;points=[[0,0.5],[1,0.5]];portConstraint=eastwest;rotatable=0;fontColor=#000000;sketch=1;" vertex="1" parent="THCSRFLYkE0kERP_fJf6-2">
          <mxGeometry y="60" width="310" height="30" as="geometry" />
        </mxCell>
        <mxCell id="THCSRFLYkE0kERP_fJf6-5" value="std::vector&lt;size_t&gt; start_" style="text;strokeColor=none;fillColor=none;align=left;verticalAlign=middle;spacingLeft=4;spacingRight=4;overflow=hidden;points=[[0,0.5],[1,0.5]];portConstraint=eastwest;rotatable=0;sketch=1;" vertex="1" parent="THCSRFLYkE0kERP_fJf6-2">
          <mxGeometry y="90" width="310" height="30" as="geometry" />
        </mxCell>
        <mxCell id="THCSRFLYkE0kERP_fJf6-6" value="std::string result_" style="text;strokeColor=none;fillColor=none;align=left;verticalAlign=middle;spacingLeft=4;spacingRight=4;overflow=hidden;points=[[0,0.5],[1,0.5]];portConstraint=eastwest;rotatable=0;sketch=1;" vertex="1" parent="THCSRFLYkE0kERP_fJf6-2">
          <mxGeometry y="120" width="310" height="30" as="geometry" />
        </mxCell>
        <mxCell id="THCSRFLYkE0kERP_fJf6-7" value="std::vector&lt;Slice&gt; tmp_keys_" style="text;strokeColor=none;fillColor=none;align=left;verticalAlign=middle;spacingLeft=4;spacingRight=4;overflow=hidden;points=[[0,0.5],[1,0.5]];portConstraint=eastwest;rotatable=0;sketch=1;" vertex="1" parent="THCSRFLYkE0kERP_fJf6-2">
          <mxGeometry y="150" width="310" height="30" as="geometry" />
        </mxCell>
        <mxCell id="THCSRFLYkE0kERP_fJf6-8" value="std::vector&lt;uint32_t&gt; filter_offsets_" style="text;strokeColor=none;fillColor=none;align=left;verticalAlign=middle;spacingLeft=4;spacingRight=4;overflow=hidden;points=[[0,0.5],[1,0.5]];portConstraint=eastwest;rotatable=0;sketch=1;" vertex="1" parent="THCSRFLYkE0kERP_fJf6-2">
          <mxGeometry y="180" width="310" height="30" as="geometry" />
        </mxCell>
        <mxCell id="THCSRFLYkE0kERP_fJf6-9" value="abc" style="rounded=0;whiteSpace=wrap;html=1;strokeColor=#6c8ebf;fillColor=#dae8fc;fontColor=default;" vertex="1" parent="1">
          <mxGeometry x="520" y="400" width="120" height="40" as="geometry" />
        </mxCell>
        <mxCell id="THCSRFLYkE0kERP_fJf6-10" value="defg" style="rounded=0;whiteSpace=wrap;html=1;strokeColor=#82b366;fillColor=#d5e8d4;fontColor=default;" vertex="1" parent="1">
          <mxGeometry x="640" y="400" width="160" height="40" as="geometry" />
        </mxCell>
        <mxCell id="THCSRFLYkE0kERP_fJf6-11" value="hi" style="rounded=0;whiteSpace=wrap;html=1;strokeColor=#9673a6;fillColor=#e1d5e7;fontColor=default;" vertex="1" parent="1">
          <mxGeometry x="800" y="400" width="80" height="40" as="geometry" />
        </mxCell>
        <mxCell id="THCSRFLYkE0kERP_fJf6-12" value="g" style="rounded=0;whiteSpace=wrap;html=1;strokeColor=#d79b00;fillColor=#ffe6cc;fontColor=default;" vertex="1" parent="1">
          <mxGeometry x="880" y="400" width="40" height="40" as="geometry" />
        </mxCell>
        <mxCell id="THCSRFLYkE0kERP_fJf6-13" value="3" style="rounded=0;whiteSpace=wrap;html=1;strokeColor=#6c8ebf;fillColor=#dae8fc;fontColor=default;" vertex="1" parent="1">
          <mxGeometry x="520" y="610" width="160" height="40" as="geometry" />
        </mxCell>
        <mxCell id="THCSRFLYkE0kERP_fJf6-14" value="4" style="rounded=0;whiteSpace=wrap;html=1;strokeColor=#82b366;fillColor=#d5e8d4;fontColor=default;" vertex="1" parent="1">
          <mxGeometry x="520" y="650" width="160" height="40" as="geometry" />
        </mxCell>
        <mxCell id="THCSRFLYkE0kERP_fJf6-15" value="2" style="rounded=0;whiteSpace=wrap;html=1;strokeColor=#9673a6;fillColor=#e1d5e7;fontColor=default;" vertex="1" parent="1">
          <mxGeometry x="520" y="690" width="160" height="40" as="geometry" />
        </mxCell>
        <mxCell id="THCSRFLYkE0kERP_fJf6-16" value="1" style="rounded=0;whiteSpace=wrap;html=1;strokeColor=#d79b00;fillColor=#ffe6cc;fontColor=default;" vertex="1" parent="1">
          <mxGeometry x="520" y="730" width="160" height="40" as="geometry" />
        </mxCell>
        <mxCell id="THCSRFLYkE0kERP_fJf6-17" style="edgeStyle=orthogonalEdgeStyle;rounded=0;orthogonalLoop=1;jettySize=auto;html=1;entryX=0;entryY=0.5;entryDx=0;entryDy=0;fontColor=default;curved=1;strokeColor=default;labelBackgroundColor=default;" edge="1" parent="1" source="THCSRFLYkE0kERP_fJf6-4" target="THCSRFLYkE0kERP_fJf6-9">
          <mxGeometry relative="1" as="geometry" />
        </mxCell>
        <mxCell id="THCSRFLYkE0kERP_fJf6-18" style="edgeStyle=orthogonalEdgeStyle;curved=1;rounded=0;orthogonalLoop=1;jettySize=auto;html=1;labelBackgroundColor=default;fontColor=default;strokeColor=default;entryX=0.5;entryY=0;entryDx=0;entryDy=0;" edge="1" parent="1" source="THCSRFLYkE0kERP_fJf6-5" target="THCSRFLYkE0kERP_fJf6-13">
          <mxGeometry relative="1" as="geometry">
            <mxPoint x="510" y="550" as="targetPoint" />
          </mxGeometry>
        </mxCell>
      </root>
    </mxGraphModel>
  </diagram>
</mxfile>
